<svg width="36" height="36" viewBox="0 0 36 36" fill="none" xmlns="http://www.w3.org/2000/svg">
<path d="M17.0002 30.334C17.6668 30.334 18.1668 30.334 18.8335 30.1673C19.0002 31.334 19.3335 32.5006 19.8335 33.334C19.0002 33.5006 18.0002 33.6673 17.0002 33.6673C7.8335 33.6673 0.333496 26.1673 0.333496 17.0007C0.333496 7.83398 7.8335 0.333984 17.0002 0.333984C26.1668 0.333984 33.6668 7.83398 33.6668 17.0007C33.6668 17.834 33.5335 18.6173 33.4002 19.5007L33.3335 19.834C32.3335 19.334 31.3335 19.0007 30.1668 18.834C30.3335 18.1673 30.3335 17.6673 30.3335 17.0007C30.3335 9.66732 24.3335 3.66732 17.0002 3.66732C9.66683 3.66732 3.66683 9.66732 3.66683 17.0007C3.66683 24.334 9.66683 30.334 17.0002 30.334ZM17.8335 17.5007L23.0002 20.5007C22.3335 21.0007 21.6668 21.5007 21.1668 22.1673L15.3335 18.6673V8.66732H17.8335V17.5007ZM26.5668 26.584L28.6668 22.0007L30.7502 26.584L35.3335 28.6673L30.7502 30.7673L28.6668 35.334L26.5668 30.7673L22.0002 28.6673L26.5668 26.584Z" fill="#00458E"/>
</svg>
