<svg width="12" height="14" viewBox="0 0 12 14" fill="none" xmlns="http://www.w3.org/2000/svg">
<path d="M1.33333 13.6673C0.966668 13.6673 0.652668 13.5367 0.391334 13.2753C0.130001 13.014 -0.000443313 12.7002 1.13186e-06 12.334V3.00065C1.13186e-06 2.63399 0.130668 2.31999 0.392001 2.05865C0.653334 1.79732 0.967112 1.66688 1.33333 1.66732H2V1.00065C2 0.811764 2.064 0.65332 2.192 0.52532C2.32 0.39732 2.47822 0.333542 2.66667 0.333987C2.85556 0.333987 3.014 0.397987 3.142 0.525987C3.27 0.653987 3.33378 0.812209 3.33333 1.00065V1.66732H8.66667V1.00065C8.66667 0.811764 8.73067 0.65332 8.85867 0.52532C8.98667 0.39732 9.14489 0.333542 9.33333 0.333987C9.52222 0.333987 9.68067 0.397987 9.80867 0.525987C9.93667 0.653987 10.0004 0.812209 10 1.00065V1.66732H10.6667C11.0333 1.66732 11.3473 1.79799 11.6087 2.05932C11.87 2.32065 12.0004 2.63443 12 3.00065V12.334C12 12.7007 11.8693 13.0147 11.608 13.276C11.3467 13.5373 11.0329 13.6678 10.6667 13.6673H1.33333ZM1.33333 12.334H10.6667V5.66732H1.33333V12.334Z" fill="#272727"/>
</svg>
